<svg xmlns="http://www.w3.org/2000/svg" width="24" height="15" viewBox="0 0 24 15" fill="none">
  <path d="M23.4263 5.05891C22.8118 1.18984 17.8203 -0.572779 13.1549 0.16428C10.7363 0.54763 7.5608 2.16007 5.1125 3.95035C5.03346 3.8397 4.90304 3.70533 4.69951 3.62233C4.31616 3.46623 0.342364 3.18761 0.0439834 3.83377C-0.252421 4.47598 1.02607 6.96775 1.58133 7.55463C1.40349 7.92217 1.3284 8.26007 1.37385 8.55055C1.42128 8.84696 1.59714 9.14534 1.87576 9.43976C1.52996 10.1788 1.08733 12.9294 1.5675 13.4472C2.05163 13.9688 5.74483 12.4769 6.06099 12.2102C6.25465 12.0461 6.33566 11.8466 6.36926 11.7142C7.57463 12.0817 8.89067 12.3722 10.185 12.5481L11.1987 13.5479C11.5346 13.8799 11.9851 14.0736 12.4574 14.0815C12.9593 14.0913 13.6904 14.0656 14.5915 13.9234C15.6151 13.7613 16.5458 13.4985 17.1584 13.3009C17.6247 13.1507 18.012 12.8227 18.2393 12.388L18.7708 11.3624C21.6973 9.99898 23.8532 7.75816 23.4263 5.05891ZM13.8485 1.78858C17.7492 1.17008 20.7947 2.64504 21.8163 4.41359C20.4252 3.95515 18.4211 3.40102 14.2259 4.06496C10.1632 4.70915 6.51153 6.01333 4.22329 7.02308C5.89698 5.31974 9.75419 2.43671 13.8485 1.78858ZM14.8346 10.8467C10.6572 11.5087 6.14596 9.92587 4.22329 8.8924C6.6874 9.08408 10.7659 9.18683 14.9334 8.52684C18.4665 7.96762 20.8204 6.96069 22.0851 6.111C21.599 8.06331 18.7688 10.2223 14.8365 10.8447L14.8346 10.8467Z" fill="#444444"></path>
</svg>