<svg width="118" height="38" viewBox="0 0 118 38" fill="none" xmlns="http://www.w3.org/2000/svg">
<path d="M20.3851 3.82702C19.9302 0.963126 16.2355 -0.341569 12.7822 0.204004C10.9919 0.48776 8.64138 1.68129 6.82914 3.00646C6.77063 2.92455 6.6741 2.82509 6.52344 2.76366C6.23969 2.64811 3.29827 2.44188 3.07741 2.92017C2.85801 3.39553 3.80435 5.23995 4.21536 5.67436C4.08372 5.94641 4.02814 6.19653 4.06178 6.41154C4.09689 6.63094 4.22706 6.8518 4.4333 7.06974C4.17733 7.61677 3.8497 9.6528 4.20512 10.036C4.56348 10.4222 7.29719 9.31785 7.53122 9.12039C7.67456 8.99899 7.73453 8.85126 7.75939 8.75326C8.65162 9.02531 9.62575 9.24032 10.5838 9.3705L11.3341 10.1106C11.5828 10.3563 11.9163 10.4997 12.2659 10.5055C12.6374 10.5128 13.1786 10.4938 13.8455 10.3885C14.6032 10.2686 15.2921 10.074 15.7455 9.92778C16.0907 9.81661 16.3774 9.57381 16.5456 9.25203L16.9391 8.49291C19.1053 7.48367 20.701 5.82501 20.3851 3.82702ZM13.2956 1.40631C16.1829 0.948499 18.4371 2.04027 19.1933 3.34935C18.1636 3.01001 16.6802 2.59984 13.5749 3.0913C10.5677 3.56812 7.8647 4.53348 6.17094 5.2809C7.40982 4.02009 10.2649 1.88606 13.2956 1.40631ZM14.0254 8.11115C10.9334 8.60114 7.59411 7.42955 6.17094 6.66458C7.99488 6.80646 11.0138 6.88252 14.0986 6.39399C16.7138 5.98005 18.4562 5.23472 19.3923 4.60578C19.0325 6.05089 16.9376 7.64895 14.0269 8.10969L14.0254 8.11115Z" fill="#B47512"></path>
<path d="M24.5177 10.5072L24.5725 0.153244H26.1848L26.1338 4.21114C26.5375 3.13135 27.3272 2.53331 28.5533 2.53331C30.2665 2.53331 31.3072 3.64633 31.306 5.73946L31.3032 10.5072H29.6404L29.6431 5.82252C29.6438 4.59322 29.1235 3.94535 28.0486 3.94535C26.8225 3.94535 26.1333 4.95869 26.1323 6.75281L26.1301 10.5072H24.5177Z" fill="#B47512"></path>
<path d="M36.3437 10.5081C33.9083 10.5081 32.3976 8.91329 32.399 6.50453C32.4004 4.07915 34.0306 2.40132 36.2812 2.40132C38.6158 2.40132 40.0089 3.94625 40.0075 6.42147L40.0072 7.0195H34.0447C34.1447 8.36509 35.0008 9.17909 36.3445 9.17909C37.6881 9.17909 38.2763 8.53121 38.5791 7.76705L40.04 8.33187C39.5018 9.54455 38.376 10.5081 36.3437 10.5081ZM34.0118 5.7902H38.3115C38.2451 4.44462 37.4897 3.7303 36.2468 3.7303C35.0543 3.7303 34.1805 4.51107 34.0118 5.7902Z" fill="#B47512"></path>
<path d="M43.6337 10.508C41.9373 10.508 40.8965 9.59434 40.8973 8.24875C40.8983 6.48786 42.2254 6.08917 43.9892 5.70709C45.333 5.42468 46.156 5.34162 46.3242 4.9097L46.3243 4.79342C46.3247 4.14554 45.8379 3.64718 44.6286 3.64718C43.4529 3.64718 42.8143 4.17877 42.7467 5.05921L42.7466 5.15889H41.0838C41.1352 3.398 42.5467 2.33482 44.6461 2.33482C46.6784 2.33482 47.8872 3.23188 47.886 5.22533L47.8838 9.09597L47.8999 10.3087H46.3043L46.305 9.12919C45.767 10.0595 44.7758 10.508 43.6337 10.508ZM43.9367 9.26209C45.0956 9.26209 46.1877 8.68067 46.3229 7.15235L46.3235 6.18884C45.8362 6.52108 44.9964 6.65398 44.2236 6.83672C43.3165 7.06929 42.5774 7.35169 42.5769 8.1823C42.5765 8.83018 43.0633 9.26209 43.9367 9.26209Z" fill="#B47512"></path>
<path d="M52.3244 10.5079C50.2921 10.5079 48.7646 8.99615 48.7661 6.45448C48.7675 3.96266 50.2801 2.33467 52.3459 2.33467C53.4376 2.33467 54.3275 2.84964 54.8981 3.68025L54.9372 5.34393e-06H56.5496L56.5066 10.3417H54.8942L54.8949 9.19549C54.3402 10.0261 53.4329 10.5079 52.3244 10.5079ZM52.7451 9.11243C54.1055 9.11243 54.9796 8.01603 54.9805 6.45448L54.9805 6.32159C54.9814 4.77665 54.1423 3.73009 52.7482 3.73009C51.4046 3.73009 50.497 4.71021 50.496 6.40465L50.496 6.52093C50.495 8.19876 51.3846 9.11243 52.7451 9.11243Z" fill="#B47512"></path>
<path d="M61.6002 10.5081C59.2656 10.5081 57.6542 8.86346 57.6555 6.4713C57.6569 4.07915 59.3039 2.40132 61.6385 2.40132C63.9731 2.40132 65.6013 4.07915 65.5999 6.4713C65.5985 8.83023 63.9348 10.5081 61.6002 10.5081ZM61.601 9.12925C63.0286 9.12925 63.9362 8.11591 63.9371 6.52114L63.9371 6.45469C63.9381 4.81009 63.0485 3.78013 61.6377 3.78013C60.2268 3.78013 59.3193 4.81009 59.3183 6.45469L59.3183 6.52114C59.3173 8.13252 60.1901 9.12925 61.601 9.12925Z" fill="#B47512"></path>
<path d="M69.2932 10.5082C67.5129 10.5082 66.4555 9.29548 66.4566 7.30202L66.4594 2.53432H68.1221L68.1194 7.21895C68.1187 8.43164 68.6558 9.09613 69.7307 9.09613C71.0408 9.09613 71.6461 7.98311 71.6471 6.28867L71.6492 2.53432H73.2952L73.2907 10.3753H71.6447L71.6455 9.02968C71.2082 9.99319 70.4353 10.5082 69.2932 10.5082Z" fill="#B47512"></path>
<path d="M76.336 10.5084C74.8916 10.442 74.5224 9.79409 74.5064 8.54818L74.509 4.06289L74.5161 3.55666L74.5088 3.05295L74.5098 2.66747L74.5107 1.13915L76.1068 0.159031L76.1054 2.66747H77.8185L77.8177 4.06289H76.1045L76.1021 8.34883C76.1018 8.84719 76.3032 9.07977 76.8071 9.07977H77.7476L77.7468 10.5084H76.336Z" fill="#B47512"></path>
<path d="M14.8913 15.23C18.9935 15.2301 21.3384 18.5124 20.2554 23.6068L20.2486 23.6409C19.1515 28.8031 15.4235 32.1865 11.2527 32.1867C9.20126 32.1867 7.72919 31.2303 6.92075 29.7267L5.162 38H0L4.75283 15.6401H9.91482L9.47147 17.726C10.866 16.1533 12.7378 15.23 14.8913 15.23ZM93.8612 15.23C97.2798 15.23 99.4723 16.4956 100.706 18.4106C100.679 18.4863 97.1346 20.7348 97.1346 20.7348C96.3023 19.5044 94.9922 18.7514 93.3857 18.7514C92.0866 18.7514 91.191 19.2646 91.0097 20.1195C90.7987 21.1104 91.6857 21.2816 94.038 21.7943C96.691 22.341 99.7816 23.402 99.0555 26.8206C98.3791 29.9992 94.9857 32.2902 91.0547 32.2902C87.5338 32.2901 85.28 30.9911 83.963 29.1447L87.6661 26.6838C88.4638 27.9143 89.862 28.7346 91.5712 28.7346C92.9048 28.7346 93.8339 28.2218 94.0302 27.2991C94.2406 26.3076 92.6855 26.0679 90.6328 25.5891C88.0561 25.0073 85.3218 23.8803 86.0264 20.5639C86.6805 17.4869 90.0319 15.23 93.8612 15.23ZM42.668 15.3511C45.1544 15.3511 47.0545 16.0921 48.2695 17.4038C48.394 17.5384 48.3317 17.7556 48.1611 17.8227C44.4817 19.2696 42.1698 22.219 41.4014 23.3255C41.2849 23.4933 41.0306 23.4676 40.9503 23.2796C40.232 21.6006 38.3553 20.51 37.7082 20.1742C37.5842 20.1099 37.4312 20.1553 37.3605 20.2758L35.7111 23.0902C35.6361 23.2182 35.6862 23.3808 35.8156 23.4534C38.3322 24.8628 38.5271 27.207 38.5177 27.9885C38.516 28.1341 38.6357 28.2511 38.7814 28.2512H41.963C42.0623 28.2511 42.1533 28.1917 42.1973 28.1028C44.3183 23.8156 47.0556 21.8499 49.4237 20.9779C49.5874 20.9177 49.768 21.0335 49.7792 21.2074C49.8292 22.0056 49.7576 22.8723 49.5604 23.7943C48.4982 28.788 44.3288 32.1699 38.9933 32.17C33.6942 32.17 31.0872 28.8186 32.1555 23.7943C33.2301 18.7333 37.369 15.3511 42.668 15.3511ZM110.736 15.2993C115.898 15.2994 118.224 18.5135 117.09 23.847L116.821 25.1116H105.231C105.006 27.2996 106.168 28.4279 108.254 28.4279C110.339 28.4278 111.582 27.4025 112.344 26.0696L116.281 27.3342C114.561 30.2746 111.775 32.1202 107.263 32.1202C101.965 32.1202 99.4327 28.9056 100.515 23.8118C101.598 18.7181 105.676 15.2993 110.736 15.2993ZM82.0041 31.7785H76.8079L80.2375 15.6411H85.4337L82.0041 31.7785ZM32.8362 20.2221H30.9222C28.5292 20.2221 27.688 21.2809 27.1723 23.7083L25.4575 31.7775H20.2261L23.6567 15.6401H28.8871L28.2914 18.4428C29.1821 16.6658 30.687 15.5377 33.4553 15.5376H33.8323L32.8362 20.2221ZM72.9427 15.23C76.1908 15.23 77.6458 17.5554 76.7229 21.8968L74.6224 31.7775H69.4252L71.4389 22.308C71.8598 20.325 71.3044 19.4018 69.8002 19.4018C68.1251 19.4018 67.0987 20.529 66.6265 22.7513L64.7076 31.7775H59.5114L61.5465 22.2044C61.9465 20.3247 61.3896 19.4018 59.8854 19.4018C58.4154 19.4019 57.2059 20.4272 56.7117 22.7513L54.7928 31.7775H49.5966L53.0272 15.6401H58.1892L57.6296 18.2729C58.8566 16.3586 60.704 15.23 63.0631 15.23C65.1483 15.2301 66.6201 16.1877 66.8628 18.5805C68.0439 16.5637 70.1056 15.23 72.9427 15.23ZM12.4216 19.1283C10.2337 19.1284 8.66652 20.8711 8.11408 23.4691L7.99104 24.0511C7.43907 26.6491 8.21794 28.2892 10.4744 28.2893C12.4573 28.2893 14.1025 26.8198 14.7419 23.8109L14.8151 23.4691C15.4546 20.4611 14.4724 19.1283 12.4216 19.1283ZM109.905 18.8891C108.093 18.8891 106.546 20.052 105.871 22.1029H112.367C112.687 19.9495 111.888 18.8892 109.905 18.8891ZM85.9464 13.5572H80.6125L81.5578 9.11196H86.8907L85.9464 13.5572Z" fill="url(#paint0_linear_11506_8885)"></path>
<defs>
<linearGradient id="paint0_linear_11506_8885" x1="114.442" y1="34.7116" x2="5.5954" y2="11.4848" gradientUnits="userSpaceOnUse">
<stop stop-color="#BC7A15"></stop>
<stop offset="0.624813" stop-color="#EEA542"></stop>
<stop offset="1" stop-color="#C78326"></stop>
</linearGradient>
</defs>
</svg>