<svg width="153" height="36" viewBox="0 0 153 36" fill="none" xmlns="http://www.w3.org/2000/svg">
<rect width="152.004" height="36" rx="8" fill="url(#paint0_linear_11254_19)"></rect>
<path d="M23.1613 16.5875C22.7111 13.7532 19.0546 12.462 15.6369 13.0019C13.865 13.2827 11.5388 14.464 9.74524 15.7755C9.68734 15.6944 9.5918 15.596 9.4427 15.5352C9.16187 15.4208 6.2508 15.2167 6.03222 15.69C5.81508 16.1605 6.75166 17.9859 7.15843 18.4158C7.02815 18.6851 6.97314 18.9326 7.00644 19.1454C7.04118 19.3625 7.17001 19.5811 7.37412 19.7968C7.12079 20.3382 6.79654 22.3532 7.1483 22.7325C7.50295 23.1146 10.2085 22.0217 10.4401 21.8263C10.5819 21.7062 10.6413 21.56 10.6659 21.463C11.5489 21.7322 12.513 21.945 13.4612 22.0738L14.2038 22.8063C14.4499 23.0495 14.7799 23.1914 15.1259 23.1972C15.4936 23.2044 16.0292 23.1856 16.6892 23.0814C17.4391 22.9627 18.1209 22.7701 18.5696 22.6254C18.9113 22.5154 19.195 22.2751 19.3615 21.9566L19.7509 21.2053C21.8947 20.2065 23.474 18.5649 23.1613 16.5875ZM16.145 14.1918C19.0025 13.7387 21.2335 14.8192 21.9819 16.1148C20.9628 15.779 19.4946 15.373 16.4214 15.8594C13.4452 16.3313 10.7701 17.2867 9.09384 18.0264C10.3199 16.7786 13.1456 14.6666 16.145 14.1918ZM16.8673 20.8275C13.8071 21.3124 10.5023 20.1529 9.09384 19.3958C10.899 19.5362 13.8867 19.6115 16.9397 19.128C19.5279 18.7184 21.2523 17.9807 22.1788 17.3583C21.8227 18.7885 19.7494 20.37 16.8687 20.826L16.8673 20.8275Z" fill="#8000FF"></path>
<path d="M27.2514 23.1988L27.3055 12.9517H28.9013L28.8507 16.9677C29.2503 15.899 30.0319 15.3072 31.2453 15.3072C32.9408 15.3072 33.9707 16.4087 33.9695 18.4803L33.9668 23.1988H32.3212L32.3239 18.5625C32.3246 17.3458 31.8097 16.7046 30.7458 16.7046C29.5324 16.7046 28.8503 17.7075 28.8493 19.4831L28.8471 23.1988H27.2514Z" fill="#8000FF"></path>
<path d="M38.9553 23.1997C36.5451 23.1997 35.0499 21.6213 35.0513 19.2374C35.0527 16.8371 36.6661 15.1766 38.8935 15.1766C41.204 15.1766 42.5827 16.7055 42.5813 19.1552L42.581 19.7471H36.68C36.779 21.0788 37.6263 21.8844 38.9561 21.8844C40.2859 21.8844 40.868 21.2432 41.1677 20.4869L42.6135 21.0459C42.0809 22.2461 40.9666 23.1997 38.9553 23.1997ZM36.6475 18.5305H40.9028C40.8371 17.1988 40.0895 16.4918 38.8595 16.4918C37.6793 16.4918 36.8144 17.2645 36.6475 18.5305Z" fill="#8000FF"></path>
<path d="M46.1701 23.1996C44.4912 23.1996 43.4611 22.2954 43.4619 20.9637C43.4629 19.2209 44.7763 18.8264 46.5219 18.4482C47.8518 18.1687 48.6664 18.0865 48.8329 17.6591L48.8329 17.544C48.8333 16.9028 48.3515 16.4096 47.1547 16.4096C45.9912 16.4096 45.3592 16.9357 45.2922 17.807L45.2922 17.9057H43.6465C43.6974 16.1629 45.0943 15.1107 47.1721 15.1107C49.1834 15.1107 50.3797 15.9985 50.3786 17.9714L50.3764 21.8021L50.3923 23.0023H48.8131L48.8138 21.835C48.2814 22.7557 47.3004 23.1996 46.1701 23.1996ZM46.47 21.9665C47.6169 21.9665 48.6977 21.3911 48.8316 19.8786L48.8321 18.925C48.3499 19.2538 47.5187 19.3853 46.754 19.5662C45.8562 19.7964 45.1247 20.0759 45.1242 20.8979C45.1238 21.5391 45.6056 21.9665 46.47 21.9665Z" fill="#8000FF"></path>
<path d="M54.7712 23.1995C52.7599 23.1995 51.2481 21.7033 51.2495 19.1879C51.251 16.7218 52.7479 15.1106 54.7925 15.1106C55.8729 15.1106 56.7536 15.6202 57.3183 16.4423L57.357 12.8H58.9528L58.9102 23.035H57.3145L57.3151 21.9006C56.7661 22.7227 55.8682 23.1995 54.7712 23.1995ZM55.1875 21.8184C56.5339 21.8184 57.3989 20.7333 57.3998 19.1879L57.3999 19.0564C57.4008 17.5274 56.5703 16.4916 55.1906 16.4916C53.8608 16.4916 52.9626 17.4616 52.9617 19.1386L52.9616 19.2537C52.9606 20.9142 53.8411 21.8184 55.1875 21.8184Z" fill="#8000FF"></path>
<path d="M63.9512 23.1997C61.6407 23.1997 60.0459 21.572 60.0473 19.2045C60.0487 16.8371 61.6786 15.1766 63.9891 15.1766C66.2996 15.1766 67.9111 16.8371 67.9097 19.2045C67.9083 21.5391 66.2618 23.1997 63.9512 23.1997ZM63.952 21.8351C65.3649 21.8351 66.2631 20.8322 66.264 19.2539L66.2641 19.1881C66.265 17.5605 65.3846 16.5411 63.9883 16.5411C62.5921 16.5411 61.6939 17.5605 61.6929 19.1881L61.6929 19.2539C61.692 20.8486 62.5558 21.8351 63.952 21.8351Z" fill="#8000FF"></path>
<path d="M71.5649 23.1998C69.8029 23.1998 68.7564 21.9996 68.7576 20.0267L68.7603 15.3082H70.4059L70.4032 19.9445C70.4025 21.1447 70.9341 21.8023 71.9979 21.8023C73.2945 21.8023 73.8935 20.7008 73.8945 19.0238L73.8966 15.3082H75.5256L75.5211 23.0682H73.8921L73.8929 21.7365C73.4602 22.6901 72.6952 23.1998 71.5649 23.1998Z" fill="#8000FF"></path>
<path d="M78.535 23.2C77.1055 23.1342 76.7402 22.493 76.7243 21.26L76.7269 16.821L76.7339 16.32L76.7267 15.8214L76.7277 15.4399L76.7285 13.9274L78.3082 12.9574L78.3068 15.4399H80.0023L80.0015 16.821H78.306L78.3035 21.0627C78.3032 21.5559 78.5026 21.7861 79.0013 21.7861H79.9321L79.9313 23.2H78.535Z" fill="#8000FF"></path>
<path d="M84.8357 25.976V15.448H86.3717V16.568C86.8997 15.768 87.7637 15.288 88.8197 15.288C90.7557 15.288 92.2117 16.76 92.2117 19.176V19.192C92.2117 21.624 90.7557 23.16 88.8037 23.16C87.7637 23.16 86.9157 22.68 86.3877 21.912V25.976H84.8357ZM88.4197 21.816C89.6997 21.816 90.5637 20.872 90.5637 19.24V19.128C90.5637 17.512 89.7157 16.632 88.4197 16.632C87.1077 16.632 86.2917 17.688 86.2917 19.192V19.32C86.2917 20.808 87.0917 21.816 88.4197 21.816ZM93.7651 23V15.448H95.3331V16.84C95.5571 15.96 96.1491 15.384 97.5251 15.384H97.7651V16.92H97.0451C95.7011 16.92 95.3331 17.592 95.3331 19.128V23H93.7651ZM102.007 23.128C99.7828 23.128 98.2468 21.544 98.2468 19.24C98.2468 16.936 99.8148 15.32 102.039 15.32C104.263 15.32 105.815 16.936 105.815 19.24C105.815 21.512 104.231 23.128 102.007 23.128ZM102.007 21.8C103.367 21.8 104.231 20.824 104.231 19.288V19.224C104.231 17.64 103.383 16.648 102.039 16.648C100.695 16.648 99.8308 17.64 99.8308 19.224V19.288C99.8308 20.84 100.663 21.8 102.007 21.8ZM109.335 23C107.959 22.936 107.607 22.312 107.591 21.112V16.792H106.391V15.448H107.591V13.976L109.111 13.032V15.448H110.743V16.792H109.111V20.92C109.111 21.4 109.303 21.624 109.783 21.624H110.679V23H109.335ZM115.287 23.128C112.967 23.128 111.527 21.592 111.527 19.272C111.527 16.936 113.079 15.32 115.223 15.32C117.447 15.32 118.775 16.808 118.775 19.192V19.768H113.095C113.191 21.064 114.007 21.848 115.287 21.848C116.567 21.848 117.127 21.224 117.415 20.488L118.807 21.032C118.295 22.2 117.223 23.128 115.287 23.128ZM113.063 18.584H117.159C117.095 17.288 116.375 16.6 115.191 16.6C114.055 16.6 113.223 17.352 113.063 18.584ZM123.653 23.128C121.397 23.128 119.957 21.512 119.957 19.208C119.957 16.952 121.493 15.32 123.701 15.32C125.477 15.32 126.597 16.28 127.061 17.752L125.557 18.216C125.301 17.256 124.757 16.648 123.669 16.648C122.357 16.648 121.541 17.688 121.541 19.192V19.256C121.541 20.744 122.309 21.8 123.621 21.8C124.837 21.8 125.365 21.176 125.621 20.152L127.125 20.616C126.629 22.152 125.493 23.128 123.653 23.128ZM130.795 23C129.419 22.936 129.067 22.312 129.051 21.112V16.792H127.851V15.448H129.051V13.976L130.571 13.032V15.448H132.203V16.792H130.571V20.92C130.571 21.4 130.763 21.624 131.243 21.624H132.139V23H130.795ZM136.455 23.208C134.999 23.208 133.799 22.584 133.111 21.624L134.471 20.904C134.935 21.576 135.719 21.912 136.519 21.912C137.367 21.912 137.879 21.528 137.879 20.904C137.879 20.248 136.999 20.104 135.815 19.848C134.439 19.56 133.207 19.08 133.207 17.624C133.207 16.296 134.455 15.288 136.055 15.288C137.479 15.288 138.583 15.928 139.319 16.904L137.959 17.576C137.527 16.92 136.839 16.568 136.055 16.568C135.239 16.568 134.711 16.952 134.711 17.528C134.711 18.152 135.223 18.264 136.599 18.536C137.975 18.808 139.399 19.304 139.399 20.792C139.399 22.184 138.167 23.208 136.455 23.208Z" fill="#222222"></path>
<defs>
<linearGradient id="paint0_linear_11254_19" x1="16.6974" y1="18" x2="142.791" y2="18" gradientUnits="userSpaceOnUse">
<stop stop-color="white"></stop>
<stop offset="1" stop-color="#F4E9FF" stop-opacity="0.5"></stop>
</linearGradient>
</defs>
</svg>