<svg width="20" height="20" viewBox="0 0 20 20" fill="none" xmlns="http://www.w3.org/2000/svg">
<path d="M18 11.0267V13.2667C18 15.3285 16.4085 17 14.4453 17C13.2674 17 12.3125 15.9972 12.3125 14.76V11.7733C12.3125 10.5362 13.2674 9.53333 14.4453 9.53333C14.9878 9.53333 15.5019 9.66096 15.9619 9.88918C16.6575 10.2343 18 11.0267 18 11.0267ZM18 11.0267C18 6.38747 14.4272 3 10.0001 3C5.57308 3 2 6.38747 2 11.0267M2 11.0267L2.00007 13.2667C2.00007 15.3285 3.59154 17 5.55472 17C6.73263 17 7.68751 15.9972 7.68751 14.76V11.7733C7.68751 10.5362 6.73263 9.53333 5.55472 9.53333C5.01224 9.53333 4.49816 9.66096 4.03818 9.88918C3.34254 10.2343 2 11.0267 2 11.0267Z" stroke="#444444" stroke-width="1.25" stroke-linecap="round" stroke-linejoin="round"></path>
</svg>