<svg width="16" height="16" viewBox="0 0 16 16" fill="none" xmlns="http://www.w3.org/2000/svg">
<path d="M3.7261 3.33307H13.2456C14.2746 3.33316 15.0749 4.22743 14.9615 5.25006L14.1226 12.7969C14.0254 13.6714 13.2866 14.3331 12.4068 14.3331H2.88724C1.85848 14.3328 1.05802 13.4386 1.17142 12.4161L2.01028 4.86921C2.10744 3.99481 2.84634 3.33313 3.7261 3.33307Z" stroke="#444444"></path>
<path d="M5.46667 6.16641L7.29321 8.60179C7.39274 8.7345 7.37954 8.9202 7.26225 9.0375L4.8 11.4997" stroke="#444444" stroke-linecap="round"></path>
<path d="M9.46667 6.16641L11.2932 8.60179C11.3927 8.7345 11.3795 8.9202 11.2622 9.0375L8.8 11.4997" stroke="#444444" stroke-linecap="round"></path>
<line x1="5.47866" y1="1.67206" x2="5.23879" y2="3.18652" stroke="#444444" stroke-linecap="round"></line>
<line x1="12.1452" y1="1.67206" x2="11.9053" y2="3.18652" stroke="#444444" stroke-linecap="round"></line>
</svg>