<svg width="16" height="16" viewBox="0 0 16 16" fill="none" xmlns="http://www.w3.org/2000/svg">
<g>
<path d="M4.66683 4.00037C3.85307 4.00281 3.40271 4.02227 3.03265 4.1776C2.51429 4.39517 2.09217 4.79705 1.84557 5.30777C1.64428 5.72462 1.61135 6.2587 1.54547 7.32687L1.44224 9.00067C1.27842 11.6569 1.19651 12.9851 1.97595 13.8259C2.75539 14.6667 4.06851 14.6667 6.69477 14.6667H9.30557C11.9318 14.6667 13.2449 14.6667 14.0244 13.8259C14.8038 12.9851 14.7219 11.6569 14.5581 9.00067L14.4548 7.32687C14.389 6.2587 14.356 5.72462 14.1548 5.30777C13.9082 4.79705 13.486 4.39517 12.9677 4.1776C12.5976 4.02227 12.1472 4.00281 11.3335 4.00037" stroke="#444444" stroke-linecap="round"></path>
<path d="M11.3333 4.66665L10.7428 3.19027C10.488 2.55329 10.2662 1.83071 9.61103 1.50635C9.26156 1.33331 8.84103 1.33331 7.99996 1.33331C7.15889 1.33331 6.73836 1.33331 6.38886 1.50635C5.73369 1.83071 5.51197 2.55329 5.25718 3.19027L4.66663 4.66665" stroke="#444444" stroke-linecap="round" stroke-linejoin="round"></path>
<path d="M10.3333 9.33333C10.3333 10.622 9.28863 11.6667 7.99996 11.6667C6.71129 11.6667 5.66663 10.622 5.66663 9.33333C5.66663 8.04467 6.71129 7 7.99996 7C9.28863 7 10.3333 8.04467 10.3333 9.33333Z" stroke="#444444"></path>
<path d="M7.99988 4H8.00588" stroke="#444444" stroke-width="1.5" stroke-linecap="round" stroke-linejoin="round"></path>
</g>
</svg>