<svg width="16" height="16" viewBox="0 0 16 16" fill="none" xmlns="http://www.w3.org/2000/svg">
<path fill-rule="evenodd" clip-rule="evenodd" d="M8.00134 1.0013C11.8673 1.0013 15.0013 4.1353 15.0013 8.0013C15.0013 11.8673 11.8673 15.0013 8.00134 15.0013C4.13535 15.0013 1.00134 11.8673 1.00134 8.0013C1.00134 4.1353 4.13535 1.0013 8.00134 1.0013ZM11.1883 6.25537C11.3843 6.04163 11.3698 5.70953 11.1561 5.51361C10.9424 5.31768 10.6103 5.33212 10.4143 5.54586L6.93485 9.34166L5.57257 7.97938C5.36755 7.77436 5.03514 7.77436 4.83011 7.97938C4.62509 8.18441 4.62509 8.51682 4.83011 8.72185L6.58011 10.4718C6.68137 10.5731 6.81959 10.6286 6.96275 10.6255C7.10591 10.6224 7.24159 10.5609 7.33835 10.4554L11.1883 6.25537Z" fill="#444444"></path>
</svg>