<svg width="16" height="16" viewBox="0 0 16 16" fill="none" xmlns="http://www.w3.org/2000/svg">
<path d="M1.33398 8.375C1.33398 6.31261 1.33398 5.28141 2.0174 4.64071C2.70082 4 3.80076 4 6.00065 4H10.0007C12.2005 4 13.3004 4 13.9839 4.64071C14.6673 5.28141 14.6673 6.31261 14.6673 8.375V9.625C14.6673 11.6874 14.6673 12.7186 13.9839 13.3593C13.3004 14 12.2005 14 10.0007 14H6.00065C3.80076 14 2.70082 14 2.0174 13.3593C1.33398 12.7186 1.33398 11.6874 1.33398 9.625V8.375Z" stroke="#444444" stroke-linecap="round" stroke-linejoin="round"></path>
<path d="M6.00061 9H10.0006M8.00061 7V11" stroke="#444444" stroke-linecap="round" stroke-linejoin="round"></path>
<path d="M11.334 4C11.334 2.34533 10.9887 2 9.33402 2H6.66736C5.01269 2 4.66736 2.34533 4.66736 4" stroke="#444444" stroke-linecap="round" stroke-linejoin="round"></path>
</svg>