<svg width="16" height="16" viewBox="0 0 16 16" fill="none" xmlns="http://www.w3.org/2000/svg">
<path d="M2.76331 2.23677C4.75062 1.01775 6.53344 1.50358 7.61044 2.31241C7.78764 2.44547 7.90924 2.53653 7.99977 2.59803C8.09031 2.53653 8.21191 2.44547 8.38911 2.31241C9.46611 1.50358 11.249 1.01775 13.2362 2.23677C14.6104 3.07968 15.3836 4.8404 15.1123 6.8634C14.8397 8.8962 13.524 11.1953 10.7376 13.2577C9.76997 13.9743 9.05984 14.5002 7.99977 14.5002C6.93971 14.5002 6.22959 13.9743 5.262 13.2577C2.4756 11.1953 1.15988 8.8962 0.887247 6.8634C0.615923 4.8404 1.38914 3.07968 2.76331 2.23677Z" fill="#444444"></path>
</svg>