<svg width="16" height="16" viewBox="0 0 16 16" fill="none" xmlns="http://www.w3.org/2000/svg">
<path d="M3.50295 2.79723L2.68437 3.27209C2.02558 3.65425 1.69618 3.84533 1.51508 4.16322C1.33398 4.4811 1.33398 4.86822 1.33398 5.64245V11.0855C1.33398 12.1028 1.33398 12.6115 1.56216 12.8945C1.71399 13.0829 1.92676 13.2095 2.16198 13.2515C2.51549 13.3146 2.9483 13.0635 3.8139 12.5614C4.40169 12.2204 4.96739 11.8663 5.67056 11.9623C5.99042 12.006 6.29552 12.1577 6.90572 12.4611L9.44832 13.7253C9.99825 13.9988 10.0033 14 10.6149 14H12.0007C13.2577 14 13.8863 14 14.2768 13.6009C14.6673 13.2017 14.6673 12.5593 14.6673 11.2745V6.781C14.6673 5.49615 14.6673 4.85373 14.2768 4.45459C13.8863 4.05544 13.2577 4.05544 12.0007 4.05544H10.6149C10.0033 4.05544 9.99825 4.05426 9.44832 3.7808L7.22725 2.67642C6.29988 2.21531 5.8362 1.98476 5.34224 2.00078C4.84827 2.01681 4.39983 2.27695 3.50295 2.79723Z" stroke="#444444" stroke-linecap="round" stroke-linejoin="round"></path>
<path d="M5.33398 2V11.6667" stroke="#444444" stroke-linecap="round" stroke-linejoin="round"></path>
<path d="M10.0006 4.33331V13.6666" stroke="#444444" stroke-linecap="round" stroke-linejoin="round"></path>
</svg>