<svg width="20" height="20" viewBox="0 0 20 20" fill="none" xmlns="http://www.w3.org/2000/svg">
<path d="M11.2006 1.69653C12.0755 1.69652 12.7906 1.69651 13.3551 1.7724C13.9452 1.85173 14.4568 2.02343 14.8651 2.4318C15.2735 2.84017 15.4452 3.35177 15.5245 3.94186C15.6004 4.50637 15.6004 5.22141 15.6004 6.09642V6.09645V13.9035V13.9036C15.6004 14.7785 15.6004 15.4936 15.5245 16.0581C15.4452 16.6482 15.2735 17.1598 14.8651 17.5682C14.4568 17.9765 13.9452 18.1483 13.3551 18.2276C12.7906 18.3034 12.0756 18.3034 11.2005 18.3034H8.80029C7.92526 18.3034 7.21023 18.3034 6.64571 18.2276C6.05563 18.1483 5.54403 17.9765 5.13566 17.5682C4.72728 17.1598 4.55559 16.6482 4.47626 16.0581C4.40036 15.4936 4.40038 14.7786 4.40039 13.9036V13.9035V6.09643V6.09631C4.40038 5.22136 4.40036 4.50635 4.47626 3.94186C4.55559 3.35177 4.72728 2.84017 5.13566 2.4318C5.54403 2.02343 6.05563 1.85173 6.64571 1.7724C7.21021 1.69651 7.92522 1.69652 8.80018 1.69653H8.80029H11.2005H11.2006Z" stroke="#444444" stroke-width="1.25" stroke-linecap="round" stroke-linejoin="round"></path>
<path d="M9.9992 5.43961C10.2725 5.43961 10.4877 5.64603 10.6252 5.92454L11.0841 6.84998C11.098 6.87862 11.131 6.91896 11.1806 6.95585C11.2301 6.99271 11.2786 7.01304 11.3106 7.0184L12.1413 7.15756C12.4414 7.20799 12.6929 7.35508 12.7745 7.61121C12.8561 7.86712 12.7366 8.13307 12.5208 8.34924L12.5206 8.34947L11.8752 9.00018C11.8496 9.02596 11.821 9.07454 11.803 9.13782C11.7852 9.2007 11.7836 9.25797 11.7917 9.29495L11.7918 9.29547L11.9764 10.1004C12.053 10.4355 12.0276 10.7677 11.7913 10.9414C11.5542 11.1156 11.2302 11.0384 10.9359 10.8631L10.1572 10.3983C10.1244 10.3788 10.0683 10.3629 10.0005 10.3629C9.9332 10.3629 9.87587 10.3785 9.84102 10.3988L9.84053 10.3991L9.06335 10.863C8.76934 11.0389 8.44573 11.1148 8.20861 10.9403C7.97249 10.7666 7.94583 10.435 8.02265 10.1003L8.20726 9.29547L8.20737 9.29495C8.21546 9.25797 8.21388 9.2007 8.19603 9.13782C8.17806 9.07454 8.14941 9.02596 8.12383 9.00018L7.47799 8.34898C7.26359 8.13281 7.14445 7.8671 7.22538 7.61156C7.30655 7.35528 7.55758 7.20801 7.85785 7.15755L8.68789 7.0185L8.68816 7.01846C8.71859 7.01318 8.76639 6.99307 8.81582 6.95612C8.86534 6.9191 8.89841 6.87868 8.91235 6.84998L8.91305 6.84855L9.37139 5.9243L9.37157 5.92394C9.51031 5.64565 9.72622 5.43961 9.9992 5.43961Z" stroke="#444444" stroke-width="1.25" stroke-linecap="round" stroke-linejoin="round"></path>
<path fill-rule="evenodd" clip-rule="evenodd" d="M9.99502 15C9.44547 15 9 15.4477 9 16C9 16.5523 9.44547 17 9.99502 17H10.005C10.5545 17 11 16.5523 11 16C11 15.4477 10.5545 15 10.005 15H9.99502Z" fill="#444444"></path>
</svg>