<svg width="16" height="16" viewBox="0 0 16 16" fill="none" xmlns="http://www.w3.org/2000/svg">
<path d="M14 4.33331C14 5.43788 13.1046 6.33331 12 6.33331C10.8954 6.33331 10 5.43788 10 4.33331C10 3.22875 10.8954 2.33331 12 2.33331C13.1046 2.33331 14 3.22875 14 4.33331Z" stroke="#444444"></path>
<path d="M6 8C6 9.1046 5.10457 10 4 10C2.89543 10 2 9.1046 2 8C2 6.8954 2.89543 6 4 6C5.10457 6 6 6.8954 6 8Z" stroke="#444444"></path>
<path d="M14 11.6667C14 12.7713 13.1046 13.6667 12 13.6667C10.8954 13.6667 10 12.7713 10 11.6667C10 10.5621 10.8954 9.66669 12 9.66669C13.1046 9.66669 14 10.5621 14 11.6667Z" stroke="#444444"></path>
<path d="M5.81897 7.16635L10.1523 5.16669M5.81897 8.83335L10.1523 10.833" stroke="#444444"></path>
</svg>