<svg width="16" height="16" viewBox="0 0 16 16" fill="none" xmlns="http://www.w3.org/2000/svg">
<g>
<path d="M13.9742 7.44036V5.50848C13.9742 4.4171 13.9742 3.8714 13.7052 3.51538C13.4363 3.15935 12.8283 2.98651 11.6122 2.64082C10.7813 2.40464 10.0489 2.12011 9.46377 1.86034C8.66593 1.50618 8.26704 1.3291 7.98488 1.3291C7.70272 1.3291 7.30383 1.50618 6.506 1.86034C5.92084 2.12011 5.18845 2.40464 4.3576 2.64082C3.14151 2.98651 2.53346 3.15935 2.26453 3.51538C1.99561 3.8714 1.99561 4.4171 1.99561 5.50848V7.44036C1.99561 11.1838 5.36475 13.4298 7.04922 14.3188C7.45323 14.532 7.65521 14.6386 7.98488 14.6386C8.31456 14.6386 8.51653 14.532 8.92054 14.3188C10.605 13.4298 13.9742 11.1838 13.9742 7.44036Z" stroke="#444444" stroke-width="0.998213" stroke-linecap="round"></path>
<path d="M6.08582 8L7.33582 9.5L10.5858 6" stroke="#444444" stroke-linecap="round" stroke-linejoin="round"></path>
</g>
</svg>