<svg width="16" height="16" viewBox="0 0 16 16" fill="none" xmlns="http://www.w3.org/2000/svg">
<g>
<path d="M5.34555 14.2864L7.33864 13.0968L8.33337 12.875C8.44449 9.02796 8.33337 1.33388 8.33337 1.33388C8.33337 1.33388 7.33337 1.33388 6.83871 2.29612L5.66551 4.66192C5.50553 4.99124 5.07891 5.30713 4.72562 5.36762L2.59919 5.72383C1.23934 5.95235 0.92604 6.94706 1.89927 7.92833L3.55241 9.59513C3.83239 9.8774 3.9857 10.4218 3.89905 10.8117L3.42577 12.875C3.05247 14.5015 3.91904 15.14 5.34555 14.2864Z" fill="#444444"></path>
<path d="M7.16917 1.85691C7.50962 1.16103 8.49019 1.16103 8.83064 1.85691L10.2412 4.7401C10.3762 5.01605 10.6364 5.20738 10.9374 5.25207L13.8715 5.92456C14.6305 6.03725 14.9336 6.98116 14.3849 7.52393L12.3226 9.56713C12.1051 9.78236 12.0057 10.092 12.0567 10.3955L12.7821 13.5673C12.9108 14.3328 12.1175 14.9162 11.4379 14.5557L8.43019 13.0624C8.16071 12.9194 7.8391 12.9194 7.56962 13.0624L4.4326 14.5557C3.75305 14.9162 2.95975 14.3328 3.08843 13.5673L3.9431 10.3955C3.99413 10.092 3.89474 9.78236 3.67717 9.56713L1.61503 7.52393C1.06636 6.98116 1.36938 6.03725 2.12846 5.92456L5.06238 5.25207C5.36339 5.20738 5.62358 5.01605 5.75859 4.7401L7.16917 1.85691Z" stroke="#444444" stroke-width="0.952143"></path>
</g>
</svg>