<svg width="16" height="16" viewBox="0 0 16 16" fill="none" xmlns="http://www.w3.org/2000/svg">
<path d="M7.12745 1.54814C7.48501 0.817286 8.51487 0.817286 8.87243 1.54814L10.3539 4.57625C10.4957 4.86607 10.769 5.06702 11.0851 5.11395L14.1666 5.82024C14.9639 5.9386 15.2821 6.92995 14.7059 7.5L12.54 9.6459C12.3114 9.87195 12.2071 10.1971 12.2607 10.5159L13.0225 13.8471C13.1577 14.6511 12.3245 15.2638 11.6108 14.8852L8.45185 13.3168C8.16883 13.1667 7.83105 13.1667 7.54803 13.3168L4.25333 14.8852C3.53963 15.2638 2.70646 14.6511 2.84161 13.8471L3.73923 10.5159C3.79282 10.1971 3.68844 9.87195 3.45993 9.6459L1.29415 7.5C0.717904 6.92995 1.03615 5.93859 1.83338 5.82024L4.91477 5.11395C5.23091 5.06702 5.50418 4.86607 5.64597 4.57624L7.12745 1.54814Z" fill="#444444"></path>
</svg>