<svg width="16" height="16" viewBox="0 0 16 16" fill="none" xmlns="http://www.w3.org/2000/svg">
<path d="M5.58887 2.63025V13.3671" stroke="#444444" stroke-linecap="round" stroke-linejoin="round"></path>
<mask id="path-2-inside-1_7629_947" fill="white">
<path fill-rule="evenodd" clip-rule="evenodd" d="M1.09998 5.37896C1.09998 3.7861 1.09998 2.98967 1.59481 2.49484C2.08965 2 2.88608 2 4.47893 2H11.521C13.1139 2 13.9103 2 14.4051 2.49484C14.9 2.98967 14.9 3.7861 14.9 5.37896C14.9 5.62772 14.7147 5.83287 14.4824 5.92193C13.6766 6.2309 13.1012 7.04451 13.1012 7.99959C13.1012 8.95437 13.6762 9.76777 14.4816 10.077C14.7143 10.1663 14.9 10.3718 14.9 10.621C14.9 12.2139 14.9 13.0103 14.4051 13.5052C13.9103 14 13.1139 14 11.521 14H4.47893C2.88608 14 2.08965 14 1.59481 13.5052C1.09998 13.0103 1.09998 12.2139 1.09998 10.621C1.09998 10.3718 1.28564 10.1663 1.51831 10.077C2.32383 9.7679 2.89898 8.95445 2.89898 7.99959C2.89898 7.04443 2.32347 6.23076 1.51754 5.92185C1.28528 5.83283 1.09998 5.6277 1.09998 5.37896Z"></path>
</mask>
<path d="M1.51754 5.92185L1.15964 6.85561L1.51754 5.92185ZM1.51831 10.077L1.87659 11.0106L1.51831 10.077ZM14.4816 10.077L14.1232 11.0105L14.4816 10.077ZM14.4824 5.92193L14.1244 4.98821L14.4824 5.92193ZM0.887705 1.78773C0.423518 2.25192 0.24751 2.82093 0.170747 3.39189C0.0978519 3.93408 0.0999756 4.6108 0.0999756 5.37896H2.09998C2.09998 4.55426 2.1021 4.03633 2.15291 3.65839C2.19986 3.30921 2.27127 3.23259 2.30192 3.20194L0.887705 1.78773ZM4.47893 1C3.71077 1 3.03406 0.997876 2.49187 1.07077C1.92091 1.14753 1.35189 1.32354 0.887705 1.78773L2.30192 3.20194C2.33257 3.17129 2.40918 3.09988 2.75836 3.05294C3.13631 3.00212 3.65423 3 4.47893 3V1ZM11.521 1H4.47893V3H11.521V1ZM15.1122 1.78773C14.6481 1.32354 14.079 1.14753 13.5081 1.07077C12.9659 0.997876 12.2892 1 11.521 1V3C12.3457 3 12.8636 3.00212 13.2416 3.05294C13.5908 3.09988 13.6674 3.17129 13.698 3.20194L15.1122 1.78773ZM15.9 5.37896C15.9 4.6108 15.9021 3.93408 15.8292 3.39189C15.7524 2.82093 15.5764 2.25192 15.1122 1.78773L13.698 3.20194C13.7287 3.23259 13.8001 3.30921 13.847 3.65839C13.8979 4.03633 13.9 4.55426 13.9 5.37896H15.9ZM14.1012 7.99959C14.1012 7.44665 14.4324 7.01209 14.8404 6.85565L14.1244 4.98821C12.9208 5.4497 12.1012 6.64237 12.1012 7.99959H14.1012ZM14.84 9.14338C14.4322 8.98681 14.1012 8.55235 14.1012 7.99959H12.1012C12.1012 9.35639 12.9203 10.5487 14.1232 11.0105L14.84 9.14338ZM15.1122 14.2123C15.5764 13.7481 15.7524 13.1791 15.8292 12.6081C15.9021 12.0659 15.9 11.3892 15.9 10.621H13.9C13.9 11.4457 13.8979 11.9637 13.847 12.3416C13.8001 12.6908 13.7287 12.7674 13.698 12.7981L15.1122 14.2123ZM11.521 15C12.2892 15 12.9659 15.0021 13.5081 14.9292C14.079 14.8525 14.6481 14.6765 15.1122 14.2123L13.698 12.7981C13.6674 12.8287 13.5908 12.9001 13.2416 12.9471C12.8636 12.9979 12.3457 13 11.521 13V15ZM4.47893 15H11.521V13H4.47893V15ZM0.887705 14.2123C1.35189 14.6765 1.92091 14.8525 2.49187 14.9292C3.03406 15.0021 3.71078 15 4.47893 15V13C3.65424 13 3.13631 12.9979 2.75836 12.9471C2.40918 12.9001 2.33257 12.8287 2.30192 12.7981L0.887705 14.2123ZM0.0999756 10.621C0.0999756 11.3892 0.0978519 12.0659 0.170747 12.6081C0.247511 13.1791 0.423518 13.7481 0.887705 14.2123L2.30192 12.7981C2.27127 12.7674 2.19986 12.6908 2.15291 12.3416C2.1021 11.9637 2.09998 11.4457 2.09998 10.621H0.0999756ZM1.89898 7.99959C1.89898 8.5524 1.56791 8.98688 1.16002 9.14342L1.87659 11.0106C3.07975 10.5489 3.89898 9.3565 3.89898 7.99959H1.89898ZM1.15964 6.85561C1.5677 7.01202 1.89898 7.4466 1.89898 7.99959H3.89898C3.89898 6.64225 3.07923 5.4495 1.87544 4.9881L1.15964 6.85561ZM1.87544 4.9881C1.91054 5.00155 1.95609 5.02798 2.00027 5.08279C2.04808 5.14212 2.09998 5.24493 2.09998 5.37896H0.0999756C0.0999756 6.1579 0.661618 6.66473 1.15964 6.85561L1.87544 4.9881ZM2.09998 10.621C2.09998 10.7549 2.04816 10.8574 2.00054 10.9165C1.95656 10.9711 1.91131 10.9973 1.87659 11.0106L1.16002 9.14342C0.662004 9.33454 0.0999756 9.84159 0.0999756 10.621H2.09998ZM14.1232 11.0105C14.0886 10.9972 14.0433 10.971 13.9994 10.9165C13.9518 10.8574 13.9 10.7548 13.9 10.621H15.9C15.9 9.8416 15.338 9.33454 14.84 9.14338L14.1232 11.0105ZM13.9 5.37896C13.9 5.24495 13.9519 5.14217 13.9996 5.08286C14.0438 5.02807 14.0893 5.00165 14.1244 4.98821L14.8404 6.85565C15.3384 6.66472 15.9 6.15789 15.9 5.37896H13.9Z" fill="#444444" mask="url(#path-2-inside-1_7629_947)"></path>
</svg>