<svg width="16" height="16" viewBox="0 0 16 16" fill="none" xmlns="http://www.w3.org/2000/svg">
<path d="M11.0007 13.3333V11.9802C11.0007 11.152 10.6278 10.3399 9.87418 9.99638C8.95498 9.57738 7.85258 9.33331 6.66732 9.33331C5.48206 9.33331 4.37965 9.57738 3.46044 9.99638C2.70683 10.3399 2.33398 11.152 2.33398 11.9802V13.3333" stroke="#444444" stroke-linecap="round" stroke-linejoin="round"></path>
<path d="M13.6673 13.334V11.9809C13.6673 11.1527 13.2944 10.3406 12.5408 9.99709C12.3671 9.91789 12.1867 9.84489 12.0006 9.77869" stroke="#444444" stroke-linecap="round" stroke-linejoin="round"></path>
<path d="M6.66732 7.33335C7.95598 7.33335 9.00065 6.28868 9.00065 5.00002C9.00065 3.71136 7.95598 2.66669 6.66732 2.66669C5.37865 2.66669 4.33398 3.71136 4.33398 5.00002C4.33398 6.28868 5.37865 7.33335 6.66732 7.33335Z" stroke="#444444" stroke-linecap="round" stroke-linejoin="round"></path>
<path d="M10.0006 2.763C10.9644 3.04985 11.6673 3.9427 11.6673 4.99971C11.6673 6.05671 10.9644 6.94958 10.0006 7.23645" stroke="#444444" stroke-linecap="round" stroke-linejoin="round"></path>
</svg>