<svg width="16" height="16" viewBox="0 0 16 16" fill="none" xmlns="http://www.w3.org/2000/svg">
<path d="M10.6667 9.33334C10.6667 9.88563 11.1145 10.3333 11.6667 10.3333C12.219 10.3333 12.6667 9.88563 12.6667 9.33334C12.6667 8.78106 12.219 8.33334 11.6667 8.33334C11.1145 8.33334 10.6667 8.78106 10.6667 9.33334Z" stroke="#444444"></path>
<path d="M6.66671 4.66667H10.6667C12.5523 4.66667 13.4951 4.66667 14.0809 5.25245C14.6667 5.83824 14.6667 6.78105 14.6667 8.66667V10C14.6667 11.8856 14.6667 12.8284 14.0809 13.4142C13.4951 14 12.5523 14 10.6667 14H6.66671C4.15255 14 2.89547 14 2.11442 13.219C1.33337 12.4379 1.33337 11.1808 1.33337 8.66667V7.33333C1.33337 4.81918 1.33337 3.5621 2.11442 2.78105C2.89547 2 4.15255 2 6.66671 2H9.33337C9.95336 2 10.2633 2 10.5177 2.06815C11.2079 2.25308 11.747 2.79218 11.9319 3.48236C12 3.7367 12 4.04669 12 4.66667" stroke="#444444" stroke-linecap="round"></path>
</svg>