<svg width="14" height="14" viewBox="0 0 14 14" fill="none" xmlns="http://www.w3.org/2000/svg">
<path d="M5.03308 7.39293H4.76535C3.89984 7.39293 3.46708 7.39293 3.28262 7.10757C3.09816 6.82226 3.27392 6.42472 3.62543 5.62965L4.68222 3.23938C5.00183 2.5165 5.16163 2.15505 5.47164 1.95253C5.78166 1.75 6.1751 1.75 6.96208 1.75H8.18089C9.13686 1.75 9.61484 1.75 9.79509 2.06229C9.9754 2.37458 9.73828 2.79176 9.26397 3.62613L8.63869 4.7261C8.40291 5.14089 8.28502 5.34829 8.28665 5.51805C8.28881 5.73869 8.40612 5.94195 8.59564 6.05325C8.74148 6.13894 8.97907 6.13894 9.45431 6.13894C10.0551 6.13894 10.3555 6.13894 10.512 6.24295C10.7152 6.37805 10.8216 6.61978 10.7843 6.86187C10.7556 7.04818 10.5535 7.2716 10.1494 7.71849L6.9206 11.2888C6.2864 11.9901 5.9693 12.3408 5.75637 12.2298C5.54343 12.1188 5.64569 11.6563 5.85019 10.7311L6.25082 8.91893C6.40651 8.2145 6.48439 7.86228 6.29714 7.62761C6.10989 7.39293 5.75094 7.39293 5.03308 7.39293Z" stroke="#444444" stroke-width="0.875" stroke-linejoin="round"></path>
</svg>